<svg width="512" height="512" viewBox="0 0 512 512" fill="none" xmlns="http://www.w3.org/2000/svg">
<rect width="512" height="512" fill="#0056D2"/>
<path d="M345.673 97.9V289H306.123L298.773 263.45H296.323C291.656 273.017 285.823 280.25 278.823 285.15C272.056 290.05 263.656 292.5 253.623 292.5C239.389 292.5 228.423 287.367 220.723 277.1H219.673C220.139 279.433 220.489 283.167 220.723 288.3C220.956 293.2 221.073 298.333 221.073 303.7C221.306 309.3 221.423 314.2 221.423 318.4V373H169.273V97.9H221.423V209.55C221.423 237.083 231.806 250.85 252.573 250.85C268.206 250.85 278.939 245.483 284.773 234.75C290.606 223.783 293.523 208.15 293.523 187.85V97.9H345.673Z" fill="white"/>
<path d="M168.281 420V397.96H194.805C196.325 397.96 197.617 398.505 198.681 399.594C199.771 400.683 200.315 401.975 200.315 403.47V420H194.539V405.028C194.539 404.192 194.539 403.774 194.539 403.774C194.539 403.774 194.121 403.774 193.285 403.774H188.497C187.661 403.774 187.243 403.774 187.243 403.774C187.243 403.774 187.243 404.192 187.243 405.028V420H181.391V405.028C181.391 404.192 181.391 403.774 181.391 403.774C181.391 403.774 180.973 403.774 180.137 403.774H175.349C174.513 403.774 174.095 403.774 174.095 403.774C174.095 403.774 174.095 404.192 174.095 405.028V420H168.281ZM205.352 420V397.96H211.166V420H205.352ZM205.352 396.592V390.74H211.166V396.592H205.352ZM219.879 420C218.384 420 217.092 419.455 216.003 418.366C214.913 417.277 214.369 415.985 214.369 414.49V403.47C214.369 401.975 214.913 400.683 216.003 399.594C217.092 398.505 218.384 397.96 219.879 397.96H236.675V403.774H221.437C220.601 403.774 220.183 403.774 220.183 403.774C220.183 403.774 220.183 404.192 220.183 405.028V412.932C220.183 413.768 220.183 414.186 220.183 414.186C220.183 414.186 220.601 414.186 221.437 414.186H236.713V420H219.879ZM240.457 420V403.47C240.457 401.975 241.002 400.683 242.091 399.594C243.181 398.505 244.485 397.96 246.005 397.96H258.165V403.774H247.525C246.689 403.774 246.271 403.774 246.271 403.774C246.271 403.774 246.271 404.192 246.271 405.028V420H240.457ZM266.117 420C264.622 420 263.33 419.455 262.241 418.366C261.152 417.277 260.607 415.985 260.607 414.49V403.47C260.607 401.975 261.152 400.683 262.241 399.594C263.33 398.505 264.622 397.96 266.117 397.96H277.441C278.961 397.96 280.253 398.505 281.317 399.594C282.406 400.683 282.951 401.975 282.951 403.47V414.49C282.951 415.985 282.406 417.277 281.317 418.366C280.253 419.455 278.961 420 277.441 420H266.117ZM267.675 414.186H275.883C276.719 414.186 277.137 414.186 277.137 414.186C277.137 414.186 277.137 413.768 277.137 412.932V405.028C277.137 404.192 277.137 403.774 277.137 403.774C277.137 403.774 276.719 403.774 275.883 403.774H267.675C266.839 403.774 266.421 403.774 266.421 403.774C266.421 403.774 266.421 404.192 266.421 405.028V412.932C266.421 413.768 266.421 414.186 266.421 414.186C266.421 414.186 266.839 414.186 267.675 414.186ZM291.426 420C289.932 420 288.64 419.455 287.55 418.366C286.461 417.277 285.916 415.985 285.916 414.49V390.702H291.768V412.932C291.768 413.768 291.768 414.186 291.768 414.186C291.768 414.186 292.186 414.186 293.022 414.186H296.214V420H291.426ZM304.637 420C303.117 420 301.813 419.455 300.723 418.366C299.659 417.277 299.127 415.985 299.127 414.49V406.054H315.657V405.028C315.657 404.192 315.657 403.774 315.657 403.774C315.657 403.774 315.239 403.774 314.403 403.774H299.127V397.96H315.961C317.481 397.96 318.773 398.505 319.837 399.594C320.927 400.683 321.471 401.975 321.471 403.47V420H304.637ZM306.195 414.186H315.657V411.146H304.941V412.932C304.941 413.768 304.941 414.186 304.941 414.186C304.941 414.186 305.359 414.186 306.195 414.186ZM325.588 428.74V397.96H342.422C343.942 397.96 345.234 398.505 346.298 399.594C347.387 400.683 347.932 401.975 347.932 403.47V414.49C347.932 415.985 347.387 417.277 346.298 418.366C345.234 419.455 343.942 420 342.422 420H331.402V428.74H325.588ZM332.656 414.186H340.864C341.7 414.186 342.118 414.186 342.118 414.186C342.118 414.186 342.118 413.768 342.118 412.932V405.028C342.118 404.192 342.118 403.774 342.118 403.774C342.118 403.774 341.7 403.774 340.864 403.774H332.656C331.82 403.774 331.402 403.774 331.402 403.774C331.402 403.774 331.402 404.192 331.402 405.028V412.932C331.402 413.768 331.402 414.186 331.402 414.186C331.402 414.186 331.82 414.186 332.656 414.186Z" fill="white"/>
</svg>
